<svg width="23" height="28" viewBox="0 0 23 28" fill="none" xmlns="http://www.w3.org/2000/svg">
<path d="M22.0665 3.95115C22.7286 3.15427 22.6231 1.97068 21.8263 1.30857C21.0294 0.646458 19.8458 0.751926 19.1837 1.5488L11.2501 11.0703L3.3165 1.5488C2.65439 0.751926 1.4708 0.646458 0.673923 1.30857C-0.122952 1.97068 -0.22842 3.15427 0.433689 3.95115L8.80674 14L0.433689 24.0488C-0.22842 24.8457 -0.122952 26.0293 0.673923 26.6914C1.4708 27.3535 2.65439 27.248 3.3165 26.4511L11.2501 16.9297L19.1837 26.4511C19.8458 27.248 21.0294 27.3535 21.8263 26.6914C22.6231 26.0293 22.7286 24.8457 22.0665 24.0488L13.6935 14L22.0665 3.95115Z" fill="white"/>
</svg>
